<svg xmlns="http://www.w3.org/2000/svg" viewBox="0 0 300 300" width="270" height="270"><circle cx="150" cy="150" r="140" fill="oklch(0.78 0.16 30)"/><circle cx="150" cy="150" r="140" fill="none" stroke="#14110f" stroke-width="2"/><rect x="138" y="6" width="24" height="36" fill="#0e1326" transform="rotate(0 150 150)"/><rect x="138" y="6" width="24" height="36" fill="#0e1326" transform="rotate(45 150 150)"/><rect x="138" y="6" width="24" height="36" fill="#0e1326" transform="rotate(90 150 150)"/><rect x="138" y="6" width="24" height="36" fill="#0e1326" transform="rotate(135 150 150)"/><rect x="138" y="6" width="24" height="36" fill="#0e1326" transform="rotate(180 150 150)"/><rect x="138" y="6" width="24" height="36" fill="#0e1326" transform="rotate(225 150 150)"/><rect x="138" y="6" width="24" height="36" fill="#0e1326" transform="rotate(270 150 150)"/><rect x="138" y="6" width="24" height="36" fill="#0e1326" transform="rotate(315 150 150)"/><circle cx="150" cy="150" r="92" fill="oklch(0.78 0.11 85)" stroke="#14110f" stroke-width="2"/><circle cx="150" cy="150" r="82" fill="none" stroke="#14110f" stroke-width="1.5"/><text x="150" y="162" text-anchor="middle" font-family="Space Grotesk, sans-serif" font-weight="800" font-size="40" fill="#14110f" letter-spacing="2">ELVIS</text></svg>